<svg width="820" height="312" viewBox="0 0 820 312" fill="none" xmlns="http://www.w3.org/2000/svg">
<rect width="820" height="312" fill="#8BAFCE"/>
<rect width="820" height="312" fill="#3F83BF" fill-opacity="0.05"/>
<g filter="url(#filter0_d_0_1)">
<path d="M210.816 128.592C210.816 126.352 211.072 124.16 211.584 122.016C212.128 119.84 212.88 117.792 213.84 115.872C214.8 113.92 215.936 112.144 217.248 110.544C218.592 108.912 220.048 107.504 221.616 106.32C223.216 105.136 224.912 104.224 226.704 103.584C228.496 102.912 230.336 102.576 232.224 102.576C234.432 102.576 236.144 103.04 237.36 103.968C238.608 104.896 239.232 106.192 239.232 107.856C239.232 108.496 239.136 109.152 238.944 109.824C238.784 110.496 238.528 111.168 238.176 111.84C237.856 112.48 237.472 113.104 237.024 113.712C236.576 114.32 236.08 114.848 235.536 115.296C234.704 115.168 233.984 114.8 233.376 114.192C232.768 113.552 232.384 112.816 232.224 111.984C233.344 111.056 234.224 110.096 234.864 109.104C235.536 108.08 235.872 107.152 235.872 106.32C235.872 104.912 234.992 104.208 233.232 104.208C232.496 104.208 231.728 104.368 230.928 104.688C230.16 104.976 229.376 105.392 228.576 105.936C227.776 106.48 226.992 107.136 226.224 107.904C225.488 108.672 224.8 109.52 224.16 110.448C219.712 116.848 217.488 123.392 217.488 130.08C217.488 132.448 217.856 134.352 218.592 135.792C219.328 137.232 220.304 138.08 221.52 138.336C222.896 138.016 224.64 137.136 226.752 135.696C228.864 134.256 231.168 132.384 233.664 130.08C233.984 130.4 234.176 130.736 234.24 131.088C233.312 132.304 232.352 133.472 231.36 134.592C230.368 135.712 229.376 136.736 228.384 137.664C227.424 138.592 226.464 139.408 225.504 140.112C224.576 140.816 223.712 141.36 222.912 141.744C218.944 141.68 215.936 140.544 213.888 138.336C211.84 136.128 210.816 132.88 210.816 128.592ZM256.537 135.216C256.537 133.872 256.761 132.144 257.209 130.032C257.657 127.92 258.249 125.664 258.985 123.264C256.873 123.424 254.745 123.632 252.601 123.888C250.489 124.144 248.649 124.288 247.081 124.32C245.641 127.68 244.489 130.784 243.625 133.632C242.793 136.448 242.137 139.2 241.657 141.888C240.441 141.6 239.433 141.088 238.633 140.352C237.833 139.648 237.097 138.752 236.425 137.664C236.681 137.152 236.969 136.496 237.289 135.696C237.641 134.896 238.041 133.936 238.489 132.816C238.969 131.664 239.497 130.336 240.073 128.832C240.681 127.296 241.369 125.52 242.137 123.504C241.081 123.056 240.377 122.432 240.025 121.632C240.185 121.504 240.537 121.376 241.081 121.248C241.657 121.088 242.361 120.928 243.193 120.768L243.817 119.232C244.489 117.504 245.033 116.048 245.449 114.864C245.897 113.68 246.265 112.528 246.553 111.408C246.873 110.256 247.161 108.992 247.417 107.616C247.705 106.24 248.041 104.496 248.425 102.384C249.769 102.64 250.985 103.232 252.073 104.16C253.193 105.088 254.153 106.208 254.953 107.52C254.665 107.904 254.313 108.48 253.897 109.248C253.481 110.016 253.017 110.944 252.505 112.032C252.025 113.088 251.497 114.288 250.921 115.632C250.345 116.944 249.721 118.336 249.049 119.808C251.033 119.552 253.033 119.312 255.049 119.088C257.097 118.864 258.905 118.704 260.473 118.608C261.049 116.944 261.641 115.328 262.249 113.76C262.889 112.16 263.513 110.704 264.121 109.392C264.729 108.08 265.305 106.928 265.849 105.936C266.425 104.944 266.937 104.208 267.385 103.728C267.705 103.76 268.121 103.888 268.633 104.112C269.177 104.304 269.721 104.544 270.265 104.832C270.809 105.12 271.305 105.44 271.753 105.792C272.201 106.112 272.505 106.416 272.665 106.704C272.089 107.248 271.513 107.952 270.937 108.816C270.361 109.68 269.785 110.672 269.209 111.792C268.665 112.912 268.121 114.128 267.577 115.44C267.033 116.752 266.521 118.112 266.041 119.52C266.681 120.096 267.001 120.816 267.001 121.68C267.001 122.288 266.873 122.848 266.617 123.36C266.329 123.296 266.041 123.264 265.753 123.264C265.465 123.232 265.161 123.2 264.841 123.168C264.297 124.896 263.801 126.608 263.353 128.304C262.905 130 262.521 131.616 262.201 133.152C261.913 134.688 261.673 136.096 261.481 137.376C261.321 138.656 261.241 139.728 261.241 140.592C261.241 140.912 261.241 141.168 261.241 141.36C261.273 141.552 261.305 141.712 261.337 141.84C260.633 141.808 260.121 141.68 259.801 141.456C259.481 141.264 259.241 141.04 259.081 140.784C258.921 140.56 258.777 140.32 258.649 140.064C258.521 139.84 258.313 139.664 258.025 139.536C257.801 139.44 257.593 139.216 257.401 138.864C257.209 138.512 257.049 138.112 256.921 137.664C256.793 137.216 256.697 136.768 256.633 136.32C256.569 135.872 256.537 135.504 256.537 135.216ZM271.647 135.264C271.647 134.112 271.823 132.624 272.175 130.8C272.559 128.944 273.039 126.96 273.615 124.848C274.223 122.704 274.911 120.528 275.679 118.32C276.447 116.08 277.231 113.984 278.031 112.032C278.831 110.08 279.615 108.368 280.383 106.896C281.151 105.424 281.839 104.368 282.447 103.728C282.767 103.76 283.183 103.888 283.695 104.112C284.239 104.304 284.783 104.544 285.327 104.832C285.871 105.12 286.367 105.44 286.815 105.792C287.263 106.112 287.551 106.416 287.679 106.704C286.751 107.536 285.823 108.8 284.895 110.496C283.999 112.16 283.119 114.064 282.255 116.208C281.423 118.352 280.639 120.624 279.903 123.024C279.167 125.392 278.527 127.696 277.983 129.936C277.439 132.176 277.007 134.256 276.687 136.176C276.399 138.096 276.255 139.648 276.255 140.832C276.255 141.376 276.303 141.712 276.399 141.84C275.695 141.808 275.183 141.68 274.863 141.456C274.543 141.264 274.287 141.04 274.095 140.784C273.935 140.56 273.775 140.32 273.615 140.064C273.487 139.84 273.279 139.664 272.991 139.536C272.767 139.44 272.575 139.216 272.415 138.864C272.255 138.512 272.111 138.128 271.983 137.712C271.887 137.264 271.807 136.816 271.743 136.368C271.679 135.92 271.647 135.552 271.647 135.264ZM294.852 108.912C293.572 108.912 292.58 108.56 291.876 107.856C291.204 107.12 290.868 106.24 290.868 105.216C290.868 104.96 290.9 104.656 290.964 104.304C291.06 103.952 291.172 103.648 291.3 103.392C291.716 103.584 292.324 103.728 293.124 103.824C293.956 103.888 294.916 103.92 296.004 103.92C297.636 103.92 299.476 103.856 301.524 103.728C303.604 103.568 305.588 103.408 307.476 103.248C309.364 103.088 311.028 102.944 312.468 102.816C313.908 102.656 314.836 102.576 315.252 102.576C316.436 102.576 317.284 103.024 317.796 103.92C318.34 104.784 318.74 105.952 318.996 107.424C318.164 107.36 317.332 107.312 316.5 107.28C315.7 107.216 315.012 107.184 314.436 107.184C313.412 107.184 312.372 107.216 311.316 107.28C310.292 107.344 309.252 107.44 308.196 107.568C307.748 108.496 307.252 109.6 306.708 110.88C306.164 112.128 305.62 113.44 305.076 114.816C304.564 116.192 304.068 117.568 303.588 118.944C303.108 120.288 302.692 121.504 302.34 122.592C301.636 124.704 301.012 126.656 300.468 128.448C299.956 130.24 299.492 131.92 299.076 133.488C298.692 135.024 298.356 136.496 298.068 137.904C297.78 139.312 297.524 140.688 297.3 142.032C295.156 141.712 293.364 140.368 291.924 138C292.18 137.008 292.484 135.936 292.836 134.784C293.22 133.6 293.652 132.272 294.132 130.8C294.644 129.296 295.236 127.6 295.908 125.712C296.58 123.824 297.348 121.68 298.212 119.28C298.532 118.384 298.868 117.456 299.22 116.496C299.572 115.504 299.908 114.528 300.228 113.568C300.58 112.608 300.884 111.68 301.14 110.784C301.428 109.888 301.668 109.072 301.86 108.336C300.516 108.496 299.236 108.64 298.02 108.768C296.836 108.864 295.78 108.912 294.852 108.912ZM335.695 103.056C336.303 103.312 336.927 103.648 337.567 104.064C338.207 104.448 338.799 104.848 339.343 105.264C339.887 105.68 340.335 106.096 340.687 106.512C341.071 106.896 341.279 107.216 341.311 107.472C340.767 107.344 340.223 107.264 339.679 107.232C339.135 107.168 338.639 107.136 338.191 107.136C336.751 107.136 335.311 107.488 333.871 108.192C332.463 108.896 331.119 109.856 329.839 111.072C328.559 112.288 327.375 113.712 326.287 115.344C325.199 116.976 324.255 118.72 323.455 120.576C322.687 122.432 322.079 124.352 321.631 126.336C321.183 128.32 320.959 130.272 320.959 132.192C320.959 134.688 321.375 136.544 322.207 137.76C323.039 138.976 324.255 139.584 325.855 139.584C326.623 139.584 327.455 139.424 328.351 139.104C329.247 138.816 330.159 138.4 331.087 137.856C332.015 137.312 332.927 136.656 333.823 135.888C334.719 135.12 335.551 134.272 336.319 133.344C337.439 132 338.447 130.48 339.343 128.784C340.239 127.056 340.991 125.232 341.599 123.312C342.239 121.392 342.719 119.424 343.039 117.408C343.391 115.36 343.567 113.36 343.567 111.408C343.567 110.64 343.551 110 343.519 109.488C343.487 108.944 343.439 108.496 343.375 108.144C343.343 107.76 343.311 107.456 343.279 107.232C343.247 107.008 343.215 106.816 343.183 106.656C343.567 106.848 343.983 107.088 344.431 107.376C344.911 107.632 345.343 108.032 345.727 108.576C346.143 109.088 346.479 109.776 346.735 110.64C347.023 111.504 347.167 112.624 347.167 114C347.167 116.24 346.895 118.448 346.351 120.624C345.839 122.768 345.103 124.816 344.143 126.768C343.215 128.72 342.111 130.544 340.831 132.24C339.551 133.936 338.175 135.424 336.703 136.704C334.783 138.4 332.735 139.712 330.559 140.64C328.383 141.568 326.287 142.032 324.271 142.032C321.327 142.032 319.071 141.088 317.503 139.2C315.967 137.344 315.199 134.592 315.199 130.944C315.199 128.992 315.407 126.928 315.823 124.752C316.271 122.576 316.879 120.432 317.647 118.32C318.447 116.208 319.391 114.208 320.479 112.32C321.567 110.4 322.751 108.72 324.031 107.28C325.343 105.808 326.735 104.64 328.207 103.776C329.711 102.912 331.247 102.48 332.815 102.48C333.327 102.48 333.807 102.528 334.255 102.624C334.703 102.688 335.183 102.832 335.695 103.056ZM366.686 105.696C365.278 107.584 363.998 109.664 362.846 111.936C361.694 114.208 360.702 116.544 359.87 118.944C359.07 121.312 358.446 123.664 357.998 126C357.582 128.304 357.374 130.464 357.374 132.48C357.374 134.976 357.742 136.784 358.478 137.904C359.214 139.024 360.478 139.584 362.27 139.584C364.35 139.584 366.174 138.864 367.742 137.424C369.31 135.952 370.782 133.936 372.158 131.376C373.054 129.712 373.822 127.888 374.462 125.904C375.102 123.92 375.614 121.888 375.998 119.808C376.414 117.696 376.718 115.584 376.91 113.472C377.102 111.328 377.198 109.28 377.198 107.328C377.198 106.08 377.182 105.168 377.15 104.592C377.118 104.016 377.07 103.552 377.006 103.2C377.102 103.2 377.342 103.232 377.726 103.296C378.11 103.36 378.542 103.44 379.022 103.536C379.534 103.632 380.03 103.76 380.51 103.92C381.022 104.08 381.454 104.256 381.806 104.448C381.646 106.88 381.342 109.392 380.894 111.984C380.478 114.576 379.918 117.136 379.214 119.664C378.51 122.192 377.694 124.624 376.766 126.96C375.838 129.296 374.798 131.392 373.646 133.248C371.95 136 370.046 138.144 367.934 139.68C365.822 141.248 363.326 142.032 360.446 142.032C357.502 142.032 355.214 141.168 353.582 139.44C351.95 137.744 351.134 135.152 351.134 131.664C351.134 129.648 351.358 127.376 351.806 124.848C352.254 122.288 352.846 119.696 353.582 117.072C354.35 114.416 355.23 111.84 356.222 109.344C357.214 106.816 358.254 104.56 359.342 102.576C359.886 102.608 360.526 102.72 361.262 102.912C361.998 103.104 362.718 103.36 363.422 103.68C364.126 103.968 364.766 104.304 365.342 104.688C365.95 105.04 366.398 105.376 366.686 105.696ZM414.363 111.552C414.363 113.088 414.011 114.544 413.307 115.92C412.635 117.264 411.691 118.48 410.475 119.568C409.259 120.624 407.835 121.52 406.203 122.256C404.571 122.992 402.795 123.488 400.875 123.744C401.355 125.184 401.931 126.672 402.603 128.208C403.307 129.712 404.059 131.168 404.859 132.576C405.659 133.984 406.491 135.28 407.355 136.464C408.219 137.648 409.067 138.624 409.899 139.392C409.739 139.712 409.499 140.032 409.179 140.352C408.891 140.672 408.539 140.96 408.123 141.216C407.739 141.504 407.323 141.728 406.875 141.888C406.459 142.08 406.059 142.176 405.675 142.176C404.971 142.176 404.299 141.84 403.659 141.168C403.019 140.496 402.363 139.44 401.691 138C401.051 136.528 400.363 134.64 399.627 132.336C398.923 130 398.139 127.2 397.275 123.936C396.923 123.936 396.571 123.936 396.219 123.936C395.867 123.936 395.595 123.904 395.403 123.84C395.179 123.712 394.939 123.488 394.683 123.168C393.819 125.024 393.051 126.768 392.379 128.4C391.707 130.032 391.099 131.616 390.555 133.152C390.043 134.656 389.579 136.128 389.163 137.568C388.779 138.976 388.443 140.416 388.155 141.888C387.067 141.632 386.123 141.168 385.323 140.496C384.523 139.824 383.771 138.88 383.067 137.664C383.195 137.376 383.323 137.104 383.451 136.848C383.611 136.56 383.803 136.176 384.027 135.696C384.251 135.184 384.523 134.544 384.843 133.776C385.195 133.008 385.643 131.984 386.187 130.704C386.763 129.424 387.435 127.856 388.203 126C389.003 124.144 389.963 121.888 391.083 119.232C391.595 118.048 392.027 117.008 392.379 116.112C392.763 115.216 393.099 114.368 393.387 113.568C393.675 112.736 393.931 111.92 394.155 111.12C394.411 110.288 394.667 109.344 394.923 108.288C393.451 108.8 392.075 109.376 390.795 110.016C389.547 110.624 388.507 111.28 387.675 111.984C387.387 111.792 387.083 111.504 386.763 111.12C386.475 110.736 386.203 110.32 385.947 109.872C385.691 109.392 385.467 108.912 385.275 108.432C385.083 107.952 384.971 107.52 384.939 107.136C385.899 106.496 387.067 105.904 388.443 105.36C389.851 104.816 391.339 104.352 392.907 103.968C394.475 103.552 396.075 103.232 397.707 103.008C399.339 102.784 400.859 102.672 402.267 102.672C406.107 102.672 409.083 103.472 411.195 105.072C413.307 106.64 414.363 108.8 414.363 111.552ZM402.651 107.52C402.427 107.808 402.075 108.384 401.595 109.248C401.115 110.112 400.555 111.152 399.915 112.368C399.307 113.552 398.651 114.848 397.947 116.256C397.275 117.664 396.619 119.056 395.979 120.432C398.379 120.432 400.587 120.208 402.603 119.76C404.619 119.312 406.363 118.688 407.835 117.888C409.307 117.056 410.443 116.096 411.243 115.008C412.075 113.888 412.491 112.656 412.491 111.312C412.491 109.712 411.915 108.496 410.763 107.664C409.611 106.8 407.835 106.368 405.435 106.368C404.891 106.368 404.347 106.4 403.803 106.464C403.259 106.496 402.683 106.544 402.075 106.608L402.651 107.52Z" fill="#F2BF5E"/>
</g>
<g filter="url(#filter1_d_0_1)">
<path d="M166.234 82.2344L162.156 81.2734V78.6484L171.273 78.3906H177.273C182.008 78.3906 185.711 79.8125 188.383 82.6562C191.055 85.4844 192.391 89.5078 192.391 94.7266C192.391 98.2109 191.742 101.258 190.445 103.867C189.164 106.477 187.32 108.484 184.914 109.891C182.508 111.297 179.727 112 176.57 112H162.156V109.117L166.234 108.156V82.2344ZM176.805 108.156C179.945 108.156 182.406 107.062 184.188 104.875C185.984 102.688 186.883 99.3828 186.883 94.9609C186.883 90.6484 186.016 87.4531 184.281 85.375C182.562 83.2812 180.148 82.2344 177.039 82.2344H171.273V108.156H176.805ZM205.328 90.0625C206.234 89.0781 207.305 88.1719 208.539 87.3438C209.789 86.5 211.141 86.0781 212.594 86.0781C213.297 86.0781 213.961 86.1328 214.586 86.2422C215.227 86.3516 215.75 86.4688 216.156 86.5938C216.562 86.7031 216.812 86.7734 216.906 86.8047L216.672 93.7656H213.531L212.828 90.1562C211.234 90.1562 209.859 90.5391 208.703 91.3047C207.547 92.0703 206.602 92.9375 205.867 93.9062V108.156L210.672 109.352V112H196.984V109.352L201.062 108.156V90.3906L196.984 89.4297V86.8047L204.906 86.5703L205.328 90.0625Z" fill="#BFD9CD"/>
</g>
<line x1="202.002" y1="127.5" x2="446.002" y2="128.543" stroke="#BFD9CD" stroke-opacity="0.2"/>
<ellipse cx="201.5" cy="127" rx="3.5" ry="1" fill="#BFD9CD" fill-opacity="0.5"/>
<defs>
<filter id="filter0_d_0_1" x="206.816" y="102.384" width="211.547" height="47.792" filterUnits="userSpaceOnUse" color-interpolation-filters="sRGB">
<feFlood flood-opacity="0" result="BackgroundImageFix"/>
<feColorMatrix in="SourceAlpha" type="matrix" values="0 0 0 0 0 0 0 0 0 0 0 0 0 0 0 0 0 0 127 0" result="hardAlpha"/>
<feOffset dy="4"/>
<feGaussianBlur stdDeviation="2"/>
<feComposite in2="hardAlpha" operator="out"/>
<feColorMatrix type="matrix" values="0 0 0 0 0 0 0 0 0 0 0 0 0 0 0 0 0 0 0.25 0"/>
<feBlend mode="normal" in2="BackgroundImageFix" result="effect1_dropShadow_0_1"/>
<feBlend mode="normal" in="SourceGraphic" in2="effect1_dropShadow_0_1" result="shape"/>
</filter>
<filter id="filter1_d_0_1" x="158.156" y="78.3906" width="62.75" height="41.6094" filterUnits="userSpaceOnUse" color-interpolation-filters="sRGB">
<feFlood flood-opacity="0" result="BackgroundImageFix"/>
<feColorMatrix in="SourceAlpha" type="matrix" values="0 0 0 0 0 0 0 0 0 0 0 0 0 0 0 0 0 0 127 0" result="hardAlpha"/>
<feOffset dy="4"/>
<feGaussianBlur stdDeviation="2"/>
<feComposite in2="hardAlpha" operator="out"/>
<feColorMatrix type="matrix" values="0 0 0 0 0 0 0 0 0 0 0 0 0 0 0 0 0 0 0.25 0"/>
<feBlend mode="normal" in2="BackgroundImageFix" result="effect1_dropShadow_0_1"/>
<feBlend mode="normal" in="SourceGraphic" in2="effect1_dropShadow_0_1" result="shape"/>
</filter>
</defs>
</svg>
